<svg width="250" height="67" viewBox="0 0 250 67" fill="none" xmlns="http://www.w3.org/2000/svg">
<g filter="url(#filter0_d_1_98)">
<rect x="2" y="2" width="242" height="59" rx="29.5" fill="#FF5E2C"/>
<path d="M48.104 40.192C46.808 40.192 45.616 39.984 44.528 39.568C43.44 39.136 42.496 38.536 41.696 37.768C40.896 36.984 40.272 36.072 39.824 35.032C39.376 33.992 39.152 32.848 39.152 31.6C39.152 30.352 39.376 29.208 39.824 28.168C40.272 27.128 40.896 26.224 41.696 25.456C42.512 24.672 43.464 24.072 44.552 23.656C45.64 23.224 46.84 23.008 48.152 23.008C49.48 23.008 50.696 23.224 51.8 23.656C52.904 24.088 53.84 24.736 54.608 25.6L53.12 27.088C52.432 26.416 51.68 25.928 50.864 25.624C50.064 25.304 49.192 25.144 48.248 25.144C47.288 25.144 46.392 25.304 45.56 25.624C44.744 25.944 44.032 26.392 43.424 26.968C42.832 27.544 42.368 28.232 42.032 29.032C41.712 29.816 41.552 30.672 41.552 31.6C41.552 32.512 41.712 33.368 42.032 34.168C42.368 34.952 42.832 35.64 43.424 36.232C44.032 36.808 44.744 37.256 45.56 37.576C46.376 37.896 47.264 38.056 48.224 38.056C49.12 38.056 49.976 37.92 50.792 37.648C51.624 37.36 52.392 36.888 53.096 36.232L54.464 38.056C53.632 38.76 52.656 39.296 51.536 39.664C50.432 40.016 49.288 40.192 48.104 40.192ZM52.16 37.744V31.504H54.464V38.056L52.16 37.744ZM64.3871 40.144C63.0271 40.144 61.8271 39.864 60.7871 39.304C59.7631 38.744 58.9631 37.976 58.3871 37C57.8271 36.024 57.5471 34.904 57.5471 33.64C57.5471 32.376 57.8191 31.256 58.3631 30.28C58.9231 29.304 59.6831 28.544 60.6431 28C61.6191 27.44 62.7151 27.16 63.9311 27.16C65.1631 27.16 66.2511 27.432 67.1951 27.976C68.1391 28.52 68.8751 29.288 69.4031 30.28C69.9471 31.256 70.2191 32.4 70.2191 33.712C70.2191 33.808 70.2111 33.92 70.1951 34.048C70.1951 34.176 70.1871 34.296 70.1711 34.408H59.3471V32.752H68.9711L68.0351 33.328C68.0511 32.512 67.8831 31.784 67.5311 31.144C67.1791 30.504 66.6911 30.008 66.0671 29.656C65.4591 29.288 64.7471 29.104 63.9311 29.104C63.1311 29.104 62.4191 29.288 61.7951 29.656C61.1711 30.008 60.6831 30.512 60.3311 31.168C59.9791 31.808 59.8031 32.544 59.8031 33.376V33.76C59.8031 34.608 59.9951 35.368 60.3791 36.04C60.7791 36.696 61.3311 37.208 62.0351 37.576C62.7391 37.944 63.5471 38.128 64.4591 38.128C65.2111 38.128 65.8911 38 66.4991 37.744C67.1231 37.488 67.6671 37.104 68.1311 36.592L69.4031 38.08C68.8271 38.752 68.1071 39.264 67.2431 39.616C66.3951 39.968 65.4431 40.144 64.3871 40.144ZM77.7864 40.144C76.5064 40.144 75.5144 39.8 74.8104 39.112C74.1064 38.424 73.7544 37.44 73.7544 36.16V24.496H76.0584V36.064C76.0584 36.752 76.2264 37.28 76.5624 37.648C76.9144 38.016 77.4104 38.2 78.0504 38.2C78.7704 38.2 79.3704 38 79.8504 37.6L80.5704 39.256C80.2184 39.56 79.7944 39.784 79.2984 39.928C78.8184 40.072 78.3144 40.144 77.7864 40.144ZM71.5944 29.176V27.28H79.7064V29.176H71.5944ZM95.0332 40.192C93.7532 40.192 92.5292 40 91.3612 39.616C90.1932 39.216 89.2732 38.704 88.6012 38.08L89.4892 36.208C90.1292 36.768 90.9452 37.232 91.9372 37.6C92.9292 37.968 93.9612 38.152 95.0332 38.152C96.0092 38.152 96.8012 38.04 97.4092 37.816C98.0172 37.592 98.4652 37.288 98.7532 36.904C99.0412 36.504 99.1852 36.056 99.1852 35.56C99.1852 34.984 98.9932 34.52 98.6092 34.168C98.2412 33.816 97.7532 33.536 97.1452 33.328C96.5532 33.104 95.8972 32.912 95.1772 32.752C94.4572 32.592 93.7292 32.408 92.9932 32.2C92.2732 31.976 91.6092 31.696 91.0012 31.36C90.4092 31.024 89.9292 30.576 89.5612 30.016C89.1932 29.44 89.0092 28.704 89.0092 27.808C89.0092 26.944 89.2332 26.152 89.6812 25.432C90.1452 24.696 90.8492 24.112 91.7932 23.68C92.7532 23.232 93.9692 23.008 95.4412 23.008C96.4172 23.008 97.3852 23.136 98.3452 23.392C99.3052 23.648 100.137 24.016 100.841 24.496L100.049 26.416C99.3292 25.936 98.5692 25.592 97.7692 25.384C96.9692 25.16 96.1932 25.048 95.4412 25.048C94.4972 25.048 93.7212 25.168 93.1132 25.408C92.5052 25.648 92.0572 25.968 91.7692 26.368C91.4972 26.768 91.3612 27.216 91.3612 27.712C91.3612 28.304 91.5452 28.776 91.9132 29.128C92.2972 29.48 92.7852 29.76 93.3772 29.968C93.9852 30.176 94.6492 30.368 95.3692 30.544C96.0892 30.704 96.8092 30.888 97.5292 31.096C98.2652 31.304 98.9292 31.576 99.5212 31.912C100.129 32.248 100.617 32.696 100.985 33.256C101.353 33.816 101.537 34.536 101.537 35.416C101.537 36.264 101.305 37.056 100.841 37.792C100.377 38.512 99.6572 39.096 98.6812 39.544C97.7212 39.976 96.5052 40.192 95.0332 40.192ZM109.075 40.144C107.795 40.144 106.803 39.8 106.099 39.112C105.395 38.424 105.043 37.44 105.043 36.16V24.496H107.347V36.064C107.347 36.752 107.515 37.28 107.851 37.648C108.203 38.016 108.699 38.2 109.339 38.2C110.059 38.2 110.659 38 111.139 37.6L111.859 39.256C111.507 39.56 111.083 39.784 110.587 39.928C110.107 40.072 109.603 40.144 109.075 40.144ZM102.883 29.176V27.28H110.995V29.176H102.883ZM122.541 40V37.312L122.421 36.808V32.224C122.421 31.248 122.133 30.496 121.557 29.968C120.997 29.424 120.149 29.152 119.013 29.152C118.261 29.152 117.525 29.28 116.805 29.536C116.085 29.776 115.477 30.104 114.981 30.52L114.021 28.792C114.677 28.264 115.461 27.864 116.373 27.592C117.301 27.304 118.269 27.16 119.277 27.16C121.021 27.16 122.365 27.584 123.309 28.432C124.253 29.28 124.725 30.576 124.725 32.32V40H122.541ZM118.365 40.144C117.421 40.144 116.589 39.984 115.869 39.664C115.165 39.344 114.621 38.904 114.237 38.344C113.853 37.768 113.661 37.12 113.661 36.4C113.661 35.712 113.821 35.088 114.141 34.528C114.477 33.968 115.013 33.52 115.749 33.184C116.501 32.848 117.509 32.68 118.773 32.68H122.805V34.336H118.869C117.717 34.336 116.941 34.528 116.541 34.912C116.141 35.296 115.941 35.76 115.941 36.304C115.941 36.928 116.189 37.432 116.685 37.816C117.181 38.184 117.869 38.368 118.749 38.368C119.613 38.368 120.365 38.176 121.005 37.792C121.661 37.408 122.133 36.848 122.421 36.112L122.877 37.696C122.573 38.448 122.037 39.048 121.269 39.496C120.501 39.928 119.533 40.144 118.365 40.144ZM128.989 40V27.28H131.197V30.736L130.981 29.872C131.333 28.992 131.925 28.32 132.757 27.856C133.589 27.392 134.613 27.16 135.829 27.16V29.392C135.733 29.376 135.637 29.368 135.541 29.368C135.461 29.368 135.381 29.368 135.301 29.368C134.069 29.368 133.093 29.736 132.373 30.472C131.653 31.208 131.293 32.272 131.293 33.664V40H128.989ZM143.552 40.144C142.272 40.144 141.28 39.8 140.576 39.112C139.872 38.424 139.52 37.44 139.52 36.16V24.496H141.824V36.064C141.824 36.752 141.992 37.28 142.328 37.648C142.68 38.016 143.176 38.2 143.816 38.2C144.536 38.2 145.136 38 145.616 37.6L146.336 39.256C145.984 39.56 145.56 39.784 145.064 39.928C144.584 40.072 144.08 40.144 143.552 40.144ZM137.36 29.176V27.28H145.472V29.176H137.36ZM154.364 40.144C153.004 40.144 151.804 39.864 150.764 39.304C149.74 38.744 148.94 37.976 148.364 37C147.804 36.024 147.524 34.904 147.524 33.64C147.524 32.376 147.796 31.256 148.34 30.28C148.9 29.304 149.66 28.544 150.62 28C151.596 27.44 152.692 27.16 153.908 27.16C155.14 27.16 156.228 27.432 157.172 27.976C158.116 28.52 158.852 29.288 159.38 30.28C159.924 31.256 160.196 32.4 160.196 33.712C160.196 33.808 160.188 33.92 160.172 34.048C160.172 34.176 160.164 34.296 160.148 34.408H149.324V32.752H158.948L158.012 33.328C158.028 32.512 157.86 31.784 157.508 31.144C157.156 30.504 156.668 30.008 156.044 29.656C155.436 29.288 154.724 29.104 153.908 29.104C153.108 29.104 152.396 29.288 151.772 29.656C151.148 30.008 150.66 30.512 150.308 31.168C149.956 31.808 149.78 32.544 149.78 33.376V33.76C149.78 34.608 149.972 35.368 150.356 36.04C150.756 36.696 151.308 37.208 152.012 37.576C152.716 37.944 153.524 38.128 154.436 38.128C155.188 38.128 155.868 38 156.476 37.744C157.1 37.488 157.644 37.104 158.108 36.592L159.38 38.08C158.804 38.752 158.084 39.264 157.22 39.616C156.372 39.968 155.42 40.144 154.364 40.144ZM168.651 40.144C167.419 40.144 166.315 39.872 165.339 39.328C164.379 38.784 163.619 38.024 163.059 37.048C162.499 36.072 162.219 34.936 162.219 33.64C162.219 32.344 162.499 31.216 163.059 30.256C163.619 29.28 164.379 28.52 165.339 27.976C166.315 27.432 167.419 27.16 168.651 27.16C169.723 27.16 170.691 27.4 171.555 27.88C172.419 28.36 173.107 29.08 173.619 30.04C174.147 31 174.411 32.2 174.411 33.64C174.411 35.08 174.155 36.28 173.643 37.24C173.147 38.2 172.467 38.928 171.603 39.424C170.739 39.904 169.755 40.144 168.651 40.144ZM168.843 38.128C169.643 38.128 170.363 37.944 171.003 37.576C171.659 37.208 172.171 36.688 172.539 36.016C172.923 35.328 173.115 34.536 173.115 33.64C173.115 32.728 172.923 31.944 172.539 31.288C172.171 30.616 171.659 30.096 171.003 29.728C170.363 29.36 169.643 29.176 168.843 29.176C168.027 29.176 167.299 29.36 166.659 29.728C166.019 30.096 165.507 30.616 165.123 31.288C164.739 31.944 164.547 32.728 164.547 33.64C164.547 34.536 164.739 35.328 165.123 36.016C165.507 36.688 166.019 37.208 166.659 37.576C167.299 37.944 168.027 38.128 168.843 38.128ZM173.187 40V36.568L173.331 33.616L173.091 30.664V22.192H175.395V40H173.187Z" fill="black"/>
<path d="M219.207 31.7071C219.598 31.3166 219.598 30.6834 219.207 30.2929L212.843 23.9289C212.453 23.5384 211.819 23.5384 211.429 23.9289C211.038 24.3195 211.038 24.9526 211.429 25.3431L217.086 31L211.429 36.6569C211.038 37.0474 211.038 37.6805 211.429 38.0711C211.819 38.4616 212.453 38.4616 212.843 38.0711L219.207 31.7071ZM217.5 32L218.5 32L218.5 30L217.5 30L217.5 32Z" fill="black"/>
</g>
<defs>
<filter id="filter0_d_1_98" x="0" y="0" width="250" height="67" filterUnits="userSpaceOnUse" color-interpolation-filters="sRGB">
<feFlood flood-opacity="0" result="BackgroundImageFix"/>
<feColorMatrix in="SourceAlpha" type="matrix" values="0 0 0 0 0 0 0 0 0 0 0 0 0 0 0 0 0 0 127 0" result="hardAlpha"/>
<feOffset dx="2" dy="2"/>
<feGaussianBlur stdDeviation="2"/>
<feComposite in2="hardAlpha" operator="out"/>
<feColorMatrix type="matrix" values="0 0 0 0 0 0 0 0 0 0 0 0 0 0 0 0 0 0 0.15 0"/>
<feBlend mode="normal" in2="BackgroundImageFix" result="effect1_dropShadow_1_98"/>
<feBlend mode="normal" in="SourceGraphic" in2="effect1_dropShadow_1_98" result="shape"/>
</filter>
</defs>
</svg>
