<svg width="441" height="190" viewBox="0 0 441 190" fill="none" xmlns="http://www.w3.org/2000/svg">
<path d="M268.328 27.752C270.376 27.752 272.152 28.152 273.656 28.952C275.192 29.72 276.376 30.904 277.208 32.504C278.072 34.072 278.504 36.024 278.504 38.36V53H276.104V38.552C276.104 35.736 275.384 33.592 273.944 32.12C272.536 30.648 270.552 29.912 267.992 29.912C266.04 29.912 264.344 30.312 262.904 31.112C261.464 31.912 260.36 33.032 259.592 34.472C258.856 35.912 258.488 37.64 258.488 39.656V53H256.088V17.384H258.488V34.904L258.056 34.136C258.824 32.152 260.088 30.6 261.848 29.48C263.608 28.328 265.768 27.752 268.328 27.752ZM298.177 53.192C295.777 53.192 293.633 52.648 291.745 51.56C289.889 50.472 288.401 48.968 287.281 47.048C286.193 45.128 285.649 42.936 285.649 40.472C285.649 37.976 286.193 35.784 287.281 33.896C288.401 31.976 289.889 30.472 291.745 29.384C293.633 28.296 295.777 27.752 298.177 27.752C300.577 27.752 302.721 28.296 304.609 29.384C306.497 30.472 307.985 31.976 309.073 33.896C310.161 35.784 310.705 37.976 310.705 40.472C310.705 42.936 310.161 45.128 309.073 47.048C307.985 48.968 306.497 50.472 304.609 51.56C302.721 52.648 300.577 53.192 298.177 53.192ZM298.177 51.032C300.097 51.032 301.825 50.6 303.361 49.736C304.897 48.84 306.097 47.592 306.961 45.992C307.825 44.392 308.257 42.552 308.257 40.472C308.257 38.36 307.825 36.52 306.961 34.952C306.097 33.352 304.897 32.12 303.361 31.256C301.825 30.36 300.097 29.912 298.177 29.912C296.257 29.912 294.529 30.36 292.993 31.256C291.489 32.12 290.289 33.352 289.393 34.952C288.529 36.52 288.097 38.36 288.097 40.472C288.097 42.552 288.529 44.392 289.393 45.992C290.289 47.592 291.489 48.84 292.993 49.736C294.529 50.6 296.257 51.032 298.177 51.032ZM322.343 53L312.839 27.944H315.143L323.975 51.656H322.967L332.039 27.944H334.103L343.127 51.656H342.071L351.047 27.944H353.255L343.751 53H341.495L332.663 30.248H333.431L324.551 53H322.343ZM266.024 112.192C263.592 112.192 261.416 111.648 259.496 110.56C257.608 109.472 256.104 107.968 254.984 106.048C253.896 104.128 253.352 101.936 253.352 99.472C253.352 96.976 253.896 94.768 254.984 92.848C256.104 90.928 257.608 89.44 259.496 88.384C261.416 87.296 263.592 86.752 266.024 86.752C268.04 86.752 269.864 87.136 271.496 87.904C273.16 88.672 274.504 89.824 275.528 91.36L273.752 92.656C272.856 91.376 271.736 90.432 270.392 89.824C269.048 89.216 267.592 88.912 266.024 88.912C264.072 88.912 262.312 89.36 260.744 90.256C259.208 91.12 257.992 92.352 257.096 93.952C256.232 95.52 255.8 97.36 255.8 99.472C255.8 101.584 256.232 103.44 257.096 105.04C257.992 106.608 259.208 107.84 260.744 108.736C262.312 109.6 264.072 110.032 266.024 110.032C267.592 110.032 269.048 109.728 270.392 109.12C271.736 108.512 272.856 107.568 273.752 106.288L275.528 107.584C274.504 109.12 273.16 110.272 271.496 111.04C269.864 111.808 268.04 112.192 266.024 112.192ZM298.505 112V106.288L298.409 105.424V96.016C298.409 93.68 297.769 91.904 296.489 90.688C295.241 89.472 293.401 88.864 290.969 88.864C289.241 88.864 287.625 89.168 286.121 89.776C284.649 90.352 283.385 91.104 282.329 92.032L281.129 90.304C282.377 89.184 283.881 88.32 285.641 87.712C287.401 87.072 289.241 86.752 291.161 86.752C294.265 86.752 296.649 87.536 298.313 89.104C299.977 90.672 300.809 93.008 300.809 96.112V112H298.505ZM289.481 112.192C287.625 112.192 286.009 111.904 284.633 111.328C283.289 110.72 282.249 109.872 281.513 108.784C280.809 107.696 280.457 106.448 280.457 105.04C280.457 103.76 280.745 102.608 281.321 101.584C281.929 100.528 282.921 99.68 284.297 99.04C285.673 98.368 287.513 98.032 289.817 98.032H299.033V99.904H289.865C287.273 99.904 285.449 100.384 284.393 101.344C283.369 102.304 282.857 103.504 282.857 104.944C282.857 106.544 283.465 107.824 284.681 108.784C285.897 109.744 287.609 110.224 289.817 110.224C291.929 110.224 293.705 109.744 295.145 108.784C296.617 107.824 297.705 106.432 298.409 104.608L299.081 106.24C298.409 108.064 297.257 109.52 295.625 110.608C294.025 111.664 291.977 112.192 289.481 112.192ZM322.937 86.752C324.985 86.752 326.761 87.152 328.265 87.952C329.801 88.72 330.985 89.904 331.817 91.504C332.681 93.072 333.113 95.024 333.113 97.36V112H330.713V97.552C330.713 94.736 329.993 92.592 328.553 91.12C327.145 89.648 325.161 88.912 322.601 88.912C320.649 88.912 318.953 89.312 317.513 90.112C316.073 90.912 314.969 92.032 314.201 93.472C313.465 94.912 313.097 96.64 313.097 98.656V112H310.697V86.944H313.001V93.904L312.665 93.136C313.433 91.152 314.697 89.6 316.457 88.48C318.217 87.328 320.377 86.752 322.937 86.752ZM342.706 112.192C342.162 112.192 341.682 112 341.266 111.616C340.882 111.2 340.69 110.704 340.69 110.128C340.69 109.552 340.882 109.072 341.266 108.688C341.682 108.304 342.162 108.112 342.706 108.112C343.25 108.112 343.714 108.304 344.098 108.688C344.514 109.072 344.722 109.552 344.722 110.128C344.722 110.704 344.514 111.2 344.098 111.616C343.714 112 343.25 112.192 342.706 112.192ZM271.88 171V165.288L271.784 164.424V155.016C271.784 152.68 271.144 150.904 269.864 149.688C268.616 148.472 266.776 147.864 264.344 147.864C262.616 147.864 261 148.168 259.496 148.776C258.024 149.352 256.76 150.104 255.704 151.032L254.504 149.304C255.752 148.184 257.256 147.32 259.016 146.712C260.776 146.072 262.616 145.752 264.536 145.752C267.64 145.752 270.024 146.536 271.688 148.104C273.352 149.672 274.184 152.008 274.184 155.112V171H271.88ZM262.856 171.192C261 171.192 259.384 170.904 258.008 170.328C256.664 169.72 255.624 168.872 254.888 167.784C254.184 166.696 253.832 165.448 253.832 164.04C253.832 162.76 254.12 161.608 254.696 160.584C255.304 159.528 256.296 158.68 257.672 158.04C259.048 157.368 260.888 157.032 263.192 157.032H272.408V158.904H263.24C260.648 158.904 258.824 159.384 257.768 160.344C256.744 161.304 256.232 162.504 256.232 163.944C256.232 165.544 256.84 166.824 258.056 167.784C259.272 168.744 260.984 169.224 263.192 169.224C265.304 169.224 267.08 168.744 268.52 167.784C269.992 166.824 271.08 165.432 271.784 163.608L272.456 165.24C271.784 167.064 270.632 168.52 269 169.608C267.4 170.664 265.352 171.192 262.856 171.192ZM284.072 171V145.944H286.472V171H284.072ZM285.272 139.848C284.728 139.848 284.264 139.656 283.88 139.272C283.496 138.888 283.304 138.44 283.304 137.928C283.304 137.384 283.496 136.92 283.88 136.536C284.264 136.152 284.728 135.96 285.272 135.96C285.848 135.96 286.312 136.152 286.664 136.536C287.048 136.888 287.24 137.336 287.24 137.88C287.24 138.424 287.048 138.888 286.664 139.272C286.312 139.656 285.848 139.848 285.272 139.848Z" fill="white"/>
<path d="M190 95C190 146.91 147.696 189 95.5 189C43.3041 189 1 146.91 1 95C1 43.0902 43.3041 1 95.5 1C147.696 1 190 43.0902 190 95Z" stroke="white" stroke-width="2"/>
<path d="M199 95C199 121.099 193.207 144.677 183.892 161.695C174.557 178.75 161.824 189 148 189C134.176 189 121.443 178.75 112.108 161.695C102.793 144.677 97 121.099 97 95C97 68.9014 102.793 45.323 112.108 28.305C121.443 11.25 134.176 1 148 1C161.824 1 174.557 11.25 183.892 28.305C193.207 45.323 199 68.9014 199 95Z" stroke="white" stroke-width="2"/>
<path d="M219 95C219 121.21 217.882 144.923 216.077 162.07C215.173 170.65 214.102 177.553 212.922 182.293C212.33 184.671 211.724 186.45 211.126 187.613C210.826 188.196 210.554 188.572 210.328 188.79C210.106 189.004 210 189 210 189C210 189 209.894 189.004 209.672 188.79C209.446 188.572 209.174 188.196 208.874 187.613C208.276 186.45 207.67 184.671 207.078 182.293C205.898 177.553 204.827 170.65 203.923 162.07C202.118 144.923 201 121.21 201 95C201 68.79 202.118 45.0766 203.923 27.9295C204.827 19.3497 205.898 12.4473 207.078 7.70707C207.67 5.32893 208.276 3.55044 208.874 2.3875C209.174 1.80434 209.446 1.42826 209.672 1.21014C209.893 0.996732 209.999 0.999956 210 1L210 1L210 1C210.001 0.999956 210.107 0.996732 210.328 1.21014C210.554 1.42826 210.826 1.80434 211.126 2.3875C211.724 3.55044 212.33 5.32893 212.922 7.70707C214.102 12.4473 215.173 19.3497 216.077 27.9295C217.882 45.0766 219 68.79 219 95Z" stroke="white" stroke-width="2"/>
</svg>
