<svg width="114" height="38" viewBox="0 0 114 38" fill="none" xmlns="http://www.w3.org/2000/svg">
<path d="M37.45 19C37.45 29.0755 29.2381 37.25 19.1 37.25C8.96186 37.25 0.75 29.0755 0.75 19C0.75 8.92451 8.96186 0.75 19.1 0.75C29.2381 0.75 37.45 8.92451 37.45 19Z" stroke="white" stroke-width="1.5"/>
<path d="M39.25 19C39.25 24.1455 38.1067 28.7668 36.296 32.0749C34.47 35.4108 32.0701 37.25 29.6 37.25C27.1298 37.25 24.7299 35.4108 22.9039 32.0749C21.0932 28.7668 19.95 24.1455 19.95 19C19.95 13.8545 21.0932 9.23319 22.9039 5.92508C24.7299 2.58918 27.1298 0.75 29.6 0.75C32.0701 0.75 34.47 2.58918 36.296 5.92508C38.1067 9.23319 39.25 13.8545 39.25 19Z" stroke="white" stroke-width="1.5"/>
<path d="M43.25 19C43.25 24.229 43.0267 28.9516 42.6683 32.3565C42.4886 34.0637 42.2775 35.4146 42.0507 36.3258C42.0337 36.3942 42.0167 36.4593 42 36.521C41.9833 36.4593 41.9663 36.3942 41.9493 36.3258C41.7225 35.4146 41.5114 34.0637 41.3317 32.3565C40.9733 28.9516 40.75 24.229 40.75 19C40.75 13.771 40.9733 9.04841 41.3317 5.64348C41.5114 3.93632 41.7225 2.58541 41.9493 1.67424C41.9663 1.60578 41.9833 1.5407 42 1.47895C42.0167 1.5407 42.0337 1.60578 42.0507 1.67424C42.2775 2.58541 42.4886 3.93632 42.6683 5.64348C43.0267 9.04841 43.25 13.771 43.25 19Z" stroke="white" stroke-width="1.5"/>
<path d="M58.39 7.44C58.9873 7.44 59.5193 7.55667 59.986 7.79C60.462 8.02333 60.8353 8.38267 61.106 8.868C61.3767 9.344 61.512 9.96 61.512 10.716V15H59.762V10.94C59.762 10.2773 59.6033 9.78267 59.286 9.456C58.978 9.12933 58.544 8.966 57.984 8.966C57.5733 8.966 57.2093 9.05 56.892 9.218C56.5747 9.386 56.3273 9.638 56.15 9.974C55.982 10.3007 55.898 10.716 55.898 11.22V15H54.148V4.612H55.898V9.54L55.52 8.924C55.7813 8.448 56.1593 8.084 56.654 7.832C57.158 7.57067 57.7367 7.44 58.39 7.44ZM67.1057 15.098C66.3403 15.098 65.659 14.9347 65.0617 14.608C64.4643 14.272 63.993 13.8147 63.6477 13.236C63.3023 12.6573 63.1297 11.9993 63.1297 11.262C63.1297 10.5153 63.3023 9.85733 63.6477 9.288C63.993 8.70933 64.4643 8.25667 65.0617 7.93C65.659 7.60333 66.3403 7.44 67.1057 7.44C67.8803 7.44 68.5663 7.60333 69.1637 7.93C69.7703 8.25667 70.2417 8.70467 70.5777 9.274C70.923 9.84333 71.0957 10.506 71.0957 11.262C71.0957 11.9993 70.923 12.6573 70.5777 13.236C70.2417 13.8147 69.7703 14.272 69.1637 14.608C68.5663 14.9347 67.8803 15.098 67.1057 15.098ZM67.1057 13.6C67.535 13.6 67.9177 13.5067 68.2537 13.32C68.5897 13.1333 68.851 12.8627 69.0377 12.508C69.2337 12.1533 69.3317 11.738 69.3317 11.262C69.3317 10.7767 69.2337 10.3613 69.0377 10.016C68.851 9.66133 68.5897 9.39067 68.2537 9.204C67.9177 9.01733 67.5397 8.924 67.1197 8.924C66.6903 8.924 66.3077 9.01733 65.9717 9.204C65.645 9.39067 65.3837 9.66133 65.1877 10.016C64.9917 10.3613 64.8937 10.7767 64.8937 11.262C64.8937 11.738 64.9917 12.1533 65.1877 12.508C65.3837 12.8627 65.645 13.1333 65.9717 13.32C66.3077 13.5067 66.6857 13.6 67.1057 13.6ZM74.216 15L71.472 7.524H73.124L75.476 14.118H74.692L77.156 7.524H78.626L81.02 14.118H80.25L82.672 7.524H84.226L81.468 15H79.788L77.604 9.162H78.122L75.896 15H74.216ZM88.6542 15.098C87.8702 15.098 87.1702 14.9347 86.5542 14.608C85.9475 14.272 85.4715 13.8147 85.1262 13.236C84.7808 12.6573 84.6082 11.9993 84.6082 11.262C84.6082 10.5153 84.7808 9.85733 85.1262 9.288C85.4715 8.70933 85.9475 8.25667 86.5542 7.93C87.1702 7.60333 87.8702 7.44 88.6542 7.44C89.3822 7.44 90.0215 7.58933 90.5722 7.888C91.1322 8.17733 91.5568 8.60667 91.8462 9.176L90.5022 9.96C90.2782 9.60533 90.0028 9.344 89.6762 9.176C89.3588 9.008 89.0135 8.924 88.6402 8.924C88.2108 8.924 87.8235 9.01733 87.4782 9.204C87.1328 9.39067 86.8622 9.66133 86.6662 10.016C86.4702 10.3613 86.3722 10.7767 86.3722 11.262C86.3722 11.7473 86.4702 12.1673 86.6662 12.522C86.8622 12.8673 87.1328 13.1333 87.4782 13.32C87.8235 13.5067 88.2108 13.6 88.6402 13.6C89.0135 13.6 89.3588 13.516 89.6762 13.348C90.0028 13.18 90.2782 12.9187 90.5022 12.564L91.8462 13.348C91.5568 13.908 91.1322 14.342 90.5722 14.65C90.0215 14.9487 89.3822 15.098 88.6542 15.098ZM97.9649 15V13.488L97.8669 13.166V10.52C97.8669 10.0067 97.7129 9.61 97.4049 9.33C97.0969 9.04067 96.6303 8.896 96.0049 8.896C95.5849 8.896 95.1696 8.96133 94.7589 9.092C94.3576 9.22267 94.0169 9.40467 93.7369 9.638L93.0509 8.364C93.4523 8.056 93.9283 7.82733 94.4789 7.678C95.0389 7.51933 95.6176 7.44 96.2149 7.44C97.2976 7.44 98.1329 7.70133 98.7209 8.224C99.3183 8.73733 99.6169 9.53533 99.6169 10.618V15H97.9649ZM95.6129 15.098C95.0529 15.098 94.5629 15.0047 94.1429 14.818C93.7229 14.622 93.3963 14.356 93.1629 14.02C92.9389 13.6747 92.8269 13.2873 92.8269 12.858C92.8269 12.438 92.9249 12.06 93.1209 11.724C93.3263 11.388 93.6576 11.122 94.1149 10.926C94.5723 10.73 95.1789 10.632 95.9349 10.632H98.1049V11.794H96.0609C95.4636 11.794 95.0623 11.892 94.8569 12.088C94.6516 12.2747 94.5489 12.508 94.5489 12.788C94.5489 13.1053 94.6749 13.3573 94.9269 13.544C95.1789 13.7307 95.5289 13.824 95.9769 13.824C96.4063 13.824 96.7889 13.726 97.1249 13.53C97.4703 13.334 97.7176 13.0447 97.8669 12.662L98.1609 13.712C97.9929 14.1507 97.6896 14.4913 97.2509 14.734C96.8216 14.9767 96.2756 15.098 95.6129 15.098ZM106.105 7.44C106.702 7.44 107.234 7.55667 107.701 7.79C108.177 8.02333 108.55 8.38267 108.821 8.868C109.092 9.344 109.227 9.96 109.227 10.716V15H107.477V10.94C107.477 10.2773 107.318 9.78267 107.001 9.456C106.693 9.12933 106.259 8.966 105.699 8.966C105.288 8.966 104.924 9.05 104.607 9.218C104.29 9.386 104.042 9.638 103.865 9.974C103.697 10.3007 103.613 10.716 103.613 11.22V15H101.863V7.524H103.529V9.54L103.235 8.924C103.496 8.448 103.874 8.084 104.369 7.832C104.873 7.57067 105.452 7.44 106.105 7.44ZM112.007 15.098C111.689 15.098 111.419 14.9907 111.195 14.776C110.971 14.552 110.859 14.272 110.859 13.936C110.859 13.5813 110.971 13.3013 111.195 13.096C111.419 12.8813 111.689 12.774 112.007 12.774C112.324 12.774 112.595 12.8813 112.819 13.096C113.043 13.3013 113.155 13.5813 113.155 13.936C113.155 14.272 113.043 14.552 112.819 14.776C112.595 14.9907 112.324 15.098 112.007 15.098ZM58.754 32V30.488L58.656 30.166V27.52C58.656 27.0067 58.502 26.61 58.194 26.33C57.886 26.0407 57.4193 25.896 56.794 25.896C56.374 25.896 55.9587 25.9613 55.548 26.092C55.1467 26.2227 54.806 26.4047 54.526 26.638L53.84 25.364C54.2413 25.056 54.7173 24.8273 55.268 24.678C55.828 24.5193 56.4067 24.44 57.004 24.44C58.0867 24.44 58.922 24.7013 59.51 25.224C60.1073 25.7373 60.406 26.5353 60.406 27.618V32H58.754ZM56.402 32.098C55.842 32.098 55.352 32.0047 54.932 31.818C54.512 31.622 54.1853 31.356 53.952 31.02C53.728 30.6747 53.616 30.2873 53.616 29.858C53.616 29.438 53.714 29.06 53.91 28.724C54.1153 28.388 54.4467 28.122 54.904 27.926C55.3613 27.73 55.968 27.632 56.724 27.632H58.894V28.794H56.85C56.2527 28.794 55.8513 28.892 55.646 29.088C55.4407 29.2747 55.338 29.508 55.338 29.788C55.338 30.1053 55.464 30.3573 55.716 30.544C55.968 30.7307 56.318 30.824 56.766 30.824C57.1953 30.824 57.578 30.726 57.914 30.53C58.2593 30.334 58.5067 30.0447 58.656 29.662L58.95 30.712C58.782 31.1507 58.4787 31.4913 58.04 31.734C57.6107 31.9767 57.0647 32.098 56.402 32.098ZM62.6519 32V24.524H64.4019V32H62.6519ZM63.5339 23.292C63.2072 23.292 62.9366 23.1893 62.7219 22.984C62.5166 22.7787 62.4139 22.5313 62.4139 22.242C62.4139 21.9433 62.5166 21.696 62.7219 21.5C62.9366 21.2947 63.2072 21.192 63.5339 21.192C63.8606 21.192 64.1266 21.29 64.3319 21.486C64.5466 21.6727 64.6539 21.9107 64.6539 22.2C64.6539 22.508 64.5512 22.7693 64.3459 22.984C64.1406 23.1893 63.8699 23.292 63.5339 23.292Z" fill="white"/>
</svg>
